<mxfile host="app.diagrams.net" modified="2021-04-19T02:19:40.165Z" agent="5.0 (Macintosh; Intel Mac OS X 10_15_6) AppleWebKit/537.36 (KHTML, like Gecko) Chrome/89.0.4389.90 Safari/537.36" etag="VkDSVSZfZo8T5WpwK76R" version="14.5.8" type="github">
  <diagram id="2rqKe3ScCihrv5Uv30zU" name="Page-1">
    <mxGraphModel dx="1183" dy="601" grid="1" gridSize="10" guides="1" tooltips="1" connect="1" arrows="1" fold="1" page="1" pageScale="1" pageWidth="827" pageHeight="1169" math="0" shadow="0">
      <root>
        <mxCell id="0" />
        <mxCell id="1" parent="0" />
        <mxCell id="9VRNTSByi9qjR2s4DUpZ-3" style="edgeStyle=orthogonalEdgeStyle;rounded=0;orthogonalLoop=1;jettySize=auto;html=1;exitX=1;exitY=0.5;exitDx=0;exitDy=0;entryX=0;entryY=0.5;entryDx=0;entryDy=0;" edge="1" parent="1" source="9VRNTSByi9qjR2s4DUpZ-1" target="9VRNTSByi9qjR2s4DUpZ-2">
          <mxGeometry relative="1" as="geometry" />
        </mxCell>
        <mxCell id="9VRNTSByi9qjR2s4DUpZ-1" value="head" style="rounded=1;whiteSpace=wrap;html=1;" vertex="1" parent="1">
          <mxGeometry x="110" y="300" width="120" height="60" as="geometry" />
        </mxCell>
        <mxCell id="9VRNTSByi9qjR2s4DUpZ-2" value="1" style="rounded=1;whiteSpace=wrap;html=1;" vertex="1" parent="1">
          <mxGeometry x="294" y="300" width="120" height="60" as="geometry" />
        </mxCell>
        <mxCell id="9VRNTSByi9qjR2s4DUpZ-10" style="edgeStyle=orthogonalEdgeStyle;rounded=0;orthogonalLoop=1;jettySize=auto;html=1;exitX=1;exitY=0.5;exitDx=0;exitDy=0;entryX=0;entryY=0.5;entryDx=0;entryDy=0;dashed=1;" edge="1" parent="1" source="9VRNTSByi9qjR2s4DUpZ-5" target="9VRNTSByi9qjR2s4DUpZ-6">
          <mxGeometry relative="1" as="geometry" />
        </mxCell>
        <mxCell id="9VRNTSByi9qjR2s4DUpZ-14" style="edgeStyle=orthogonalEdgeStyle;rounded=0;orthogonalLoop=1;jettySize=auto;html=1;exitX=1;exitY=0.5;exitDx=0;exitDy=0;entryX=0;entryY=0.5;entryDx=0;entryDy=0;" edge="1" parent="1" source="9VRNTSByi9qjR2s4DUpZ-5" target="9VRNTSByi9qjR2s4DUpZ-7">
          <mxGeometry relative="1" as="geometry" />
        </mxCell>
        <mxCell id="9VRNTSByi9qjR2s4DUpZ-5" value="head" style="rounded=1;whiteSpace=wrap;html=1;" vertex="1" parent="1">
          <mxGeometry x="110" y="420" width="120" height="60" as="geometry" />
        </mxCell>
        <mxCell id="9VRNTSByi9qjR2s4DUpZ-6" value="1" style="rounded=1;whiteSpace=wrap;html=1;" vertex="1" parent="1">
          <mxGeometry x="470" y="420" width="120" height="60" as="geometry" />
        </mxCell>
        <mxCell id="9VRNTSByi9qjR2s4DUpZ-13" style="edgeStyle=orthogonalEdgeStyle;rounded=0;orthogonalLoop=1;jettySize=auto;html=1;exitX=1;exitY=0.5;exitDx=0;exitDy=0;entryX=0;entryY=0.5;entryDx=0;entryDy=0;" edge="1" parent="1" source="9VRNTSByi9qjR2s4DUpZ-7" target="9VRNTSByi9qjR2s4DUpZ-6">
          <mxGeometry relative="1" as="geometry" />
        </mxCell>
        <mxCell id="9VRNTSByi9qjR2s4DUpZ-7" value="2" style="rounded=1;whiteSpace=wrap;html=1;" vertex="1" parent="1">
          <mxGeometry x="300" y="470" width="120" height="60" as="geometry" />
        </mxCell>
      </root>
    </mxGraphModel>
  </diagram>
</mxfile>
